<svg xmlns="http://www.w3.org/2000/svg" viewBox="0 0 463 71.6" role="img" aria-labelledby="t"><title id="t">Salt I.T.</title><path fill="#FAFBFC" d="M0 51.5V49Q0 48.5 0.4 48.1Q0.7 47.8 1.2 47.8H10.1Q10.6 47.8 11 48.1Q11.3 48.5 11.3 49V50.9Q11.3 55.5 15.4 58.5Q19.5 61.6 26.6 61.6Q32.7 61.6 35.8 59Q38.9 56.4 38.9 52.3Q38.9 49.5 37.2 47.5Q35.5 45.6 32.4 44Q29.2 42.4 22.9 40Q15.8 37.4 11.4 35.1Q7 32.8 4.1 28.8Q1.1 24.9 1.1 19Q1.1 10.2 7.5 5.1Q13.9 0 24.6 0Q32.1 0 37.9 2.6Q43.6 5.2 46.8 9.8Q50 14.5 50 20.6V22.3Q50 22.8 49.6 23.1Q49.3 23.5 48.8 23.5H39.8Q39.3 23.5 39 23.1Q38.6 22.8 38.6 22.3V21.2Q38.6 16.5 34.8 13.2Q30.9 10 24.1 10Q18.6 10 15.6 12.3Q12.5 14.6 12.5 18.8Q12.5 21.8 14.1 23.7Q15.7 25.6 18.9 27.1Q22.1 28.7 28.8 31.1Q35.9 33.8 40.1 36Q44.4 38.2 47.5 42.1Q50.5 46.1 50.5 52Q50.5 61 43.9 66.3Q37.2 71.6 25.7 71.6Q17.9 71.6 12.1 69.1Q6.3 66.6 3.1 62.1Q0 57.6 0 51.5ZM119.3 69.8 102.5 15.5Q102.4 15.1 102.2 15.1Q102 15.1 101.9 15.5L85.3 69.8Q85 70.8 84 70.8H74Q73.4 70.8 73.1 70.4Q72.8 70.1 73 69.4L94.7 1.8Q95 0.8 96 0.8H108.5Q109.5 0.8 109.8 1.8L131.6 69.4Q131.7 69.6 131.7 69.9Q131.7 70.8 130.6 70.8H120.6Q119.6 70.8 119.3 69.8ZM157 69.6V2Q157 1.5 157.4 1.1Q157.7 0.8 158.2 0.8H167.4Q167.9 0.8 168.2 1.1Q168.6 1.5 168.6 2V60.3Q168.6 60.8 169.1 60.8H202.6Q203.1 60.8 203.5 61.1Q203.8 61.5 203.8 62V69.6Q203.8 70.1 203.5 70.4Q203.1 70.8 202.6 70.8H158.2Q157.7 70.8 157.4 70.4Q157 70.1 157 69.6ZM267.7 2V9.7Q267.7 10.2 267.4 10.5Q267 10.9 266.5 10.9H248.1Q247.6 10.9 247.6 11.4V69.6Q247.6 70.1 247.3 70.4Q246.9 70.8 246.4 70.8H237.2Q236.7 70.8 236.4 70.4Q236 70.1 236 69.6V11.4Q236 10.9 235.5 10.9H217.8Q217.3 10.9 217 10.5Q216.6 10.2 216.6 9.7V2Q216.6 1.5 217 1.1Q217.3 0.8 217.8 0.8H266.5Q267 0.8 267.4 1.1Q267.7 1.5 267.7 2ZM321.7 69.6V2Q321.7 1.5 322.1 1.1Q322.4 0.8 322.9 0.8H332.1Q332.6 0.8 333 1.1Q333.3 1.5 333.3 2V69.6Q333.3 70.1 333 70.4Q332.6 70.8 332.1 70.8H322.9Q322.4 70.8 322.1 70.4Q321.7 70.1 321.7 69.6ZM350.1 63.9Q350.1 60.8 352.1 58.8Q354.1 56.8 357.2 56.8Q360.3 56.8 362.2 58.8Q364.2 60.8 364.2 63.9Q364.2 67 362.2 69Q360.2 71 357.2 71Q354.1 71 352.1 69Q350.1 67 350.1 63.9ZM432.1 2V9.7Q432.1 10.2 431.8 10.5Q431.4 10.9 430.9 10.9H412.5Q412 10.9 412 11.4V69.6Q412 70.1 411.6 70.4Q411.3 70.8 410.8 70.8H401.6Q401.1 70.8 400.8 70.4Q400.4 70.1 400.4 69.6V11.4Q400.4 10.9 399.9 10.9H382.2Q381.7 10.9 381.4 10.5Q381 10.2 381 9.7V2Q381 1.5 381.4 1.1Q381.7 0.8 382.2 0.8H430.9Q431.4 0.8 431.8 1.1Q432.1 1.5 432.1 2ZM448.9 63.9Q448.9 60.8 450.9 58.8Q452.9 56.8 456 56.8Q459.1 56.8 461.1 58.8Q463 60.8 463 63.9Q463 67 461 69Q459 71 456 71Q452.9 71 450.9 69Q448.9 67 448.9 63.9Z"/><path fill="#3EC6CF" d="M96.7 59.8H107.9V48.6H96.7Z"/></svg>
